<!-- Generated by IcoMoon.io -->
<svg version="1.1" xmlns="http://www.w3.org/2000/svg" width="32" height="32" viewBox="0 0 32 32">
<title>company3</title>
<path fill="#afb1b8" d="M11.576 22.278c0.005 0 0.009 0.001 0.013 0.003s0.008 0.004 0.011 0.008l0.062 0.065c-0.048 0.053-0.108 0.095-0.175 0.124-0.078 0.031-0.163 0.046-0.248 0.044-0.080 0.002-0.159-0.013-0.233-0.041-0.067-0.027-0.126-0.066-0.175-0.117-0.050-0.052-0.089-0.114-0.113-0.181-0.027-0.074-0.040-0.153-0.040-0.232-0.001-0.079 0.013-0.158 0.043-0.232 0.027-0.067 0.068-0.129 0.12-0.181 0.053-0.051 0.116-0.091 0.186-0.118 0.076-0.028 0.158-0.042 0.24-0.041 0.076-0.002 0.152 0.011 0.223 0.038 0.062 0.025 0.118 0.061 0.167 0.104l-0.052 0.070c-0.004 0.005-0.008 0.009-0.013 0.013-0.006 0.004-0.014 0.006-0.021 0.005s-0.016-0.003-0.023-0.007l-0.028-0.018-0.039-0.024c-0.017-0.009-0.034-0.016-0.052-0.023-0.023-0.008-0.047-0.014-0.071-0.018-0.030-0.005-0.061-0.008-0.092-0.007-0.059-0.001-0.118 0.010-0.172 0.031-0.051 0.020-0.097 0.049-0.135 0.087-0.039 0.040-0.069 0.088-0.088 0.139-0.022 0.059-0.033 0.121-0.032 0.184-0.001 0.063 0.010 0.127 0.032 0.186 0.019 0.051 0.048 0.098 0.086 0.138 0.036 0.038 0.080 0.067 0.129 0.086 0.051 0.020 0.105 0.030 0.16 0.030 0.032 0 0.063-0.002 0.095-0.006 0.051-0.006 0.1-0.023 0.144-0.050 0.022-0.014 0.042-0.029 0.061-0.046 0.008-0.007 0.018-0.011 0.030-0.012z"></path>
<path fill="#afb1b8" d="M13.37 21.95c0.001 0.079-0.013 0.157-0.042 0.23-0.025 0.067-0.065 0.128-0.117 0.179s-0.114 0.091-0.184 0.117c-0.152 0.055-0.32 0.055-0.472 0-0.069-0.027-0.131-0.067-0.182-0.118-0.052-0.052-0.092-0.113-0.118-0.18-0.056-0.149-0.056-0.312 0-0.461 0.026-0.067 0.067-0.129 0.118-0.181 0.052-0.049 0.114-0.088 0.182-0.113 0.152-0.056 0.32-0.056 0.472 0 0.069 0.027 0.131 0.067 0.183 0.118s0.091 0.112 0.117 0.178c0.029 0.074 0.043 0.153 0.042 0.232zM13.207 21.95c0.001-0.063-0.009-0.125-0.030-0.185-0.017-0.051-0.046-0.098-0.083-0.138-0.036-0.038-0.081-0.068-0.131-0.087-0.11-0.040-0.233-0.040-0.343 0-0.050 0.019-0.095 0.049-0.131 0.087-0.038 0.040-0.066 0.087-0.084 0.138-0.040 0.12-0.040 0.25 0 0.37 0.018 0.051 0.046 0.098 0.084 0.138 0.036 0.038 0.081 0.067 0.131 0.087 0.111 0.039 0.233 0.039 0.343 0 0.050-0.019 0.095-0.049 0.131-0.087 0.037-0.040 0.066-0.087 0.083-0.138 0.021-0.060 0.031-0.122 0.030-0.185z"></path>
<path fill="#afb1b8" d="M14.593 22.144l0.016 0.041c0.006-0.015 0.012-0.028 0.018-0.041s0.013-0.027 0.020-0.041l0.397-0.687c0.008-0.012 0.015-0.019 0.023-0.021 0.011-0.003 0.022-0.004 0.033-0.004h0.117v1.118h-0.139v-0.822c0-0.010 0-0.022 0-0.035s-0.001-0.026 0-0.038l-0.399 0.697c-0.005 0.010-0.013 0.019-0.023 0.025s-0.022 0.009-0.034 0.009h-0.023c-0.012 0-0.024-0.003-0.034-0.009s-0.018-0.015-0.023-0.026l-0.411-0.701c0 0.013 0 0.027 0 0.040s0 0.025 0 0.035v0.822h-0.134v-1.116h0.117c0.011-0.001 0.022 0.001 0.033 0.004 0.010 0.005 0.017 0.012 0.022 0.021l0.405 0.688c0.008 0.013 0.015 0.026 0.020 0.040z"></path>
<path fill="#afb1b8" d="M16.087 22.089v0.419h-0.155v-1.116h0.346c0.065-0.001 0.131 0.007 0.193 0.024 0.050 0.014 0.097 0.037 0.137 0.070 0.034 0.030 0.061 0.068 0.078 0.11 0.018 0.046 0.027 0.094 0.026 0.143 0.001 0.049-0.009 0.098-0.029 0.143-0.019 0.043-0.047 0.081-0.084 0.112-0.040 0.034-0.087 0.059-0.137 0.074-0.060 0.018-0.124 0.027-0.187 0.026l-0.188-0.003zM16.087 21.969h0.188c0.041 0 0.081-0.005 0.12-0.017 0.032-0.010 0.062-0.027 0.087-0.048 0.023-0.020 0.041-0.046 0.053-0.074 0.013-0.030 0.019-0.062 0.019-0.094 0.002-0.031-0.003-0.062-0.016-0.091s-0.031-0.055-0.054-0.076c-0.059-0.044-0.134-0.066-0.209-0.060h-0.188v0.46z"></path>
<path fill="#afb1b8" d="M18.174 22.509h-0.123c-0.012 0-0.024-0.003-0.034-0.010s-0.016-0.016-0.020-0.026l-0.106-0.27h-0.53l-0.11 0.27c-0.004 0.010-0.011 0.019-0.019 0.025-0.010 0.008-0.022 0.012-0.035 0.011h-0.123l0.466-1.118h0.162l0.472 1.118zM17.405 22.094h0.438l-0.185-0.455c-0.014-0.034-0.026-0.069-0.035-0.105l-0.018 0.058c-0.005 0.018-0.012 0.034-0.017 0.047l-0.183 0.454z"></path>
<path fill="#afb1b8" d="M18.845 21.396c0.009 0.005 0.017 0.012 0.023 0.020l0.679 0.843c0-0.013 0-0.027 0-0.039s0-0.025 0-0.037v-0.792h0.139v1.118h-0.078c-0.011 0-0.022-0.002-0.032-0.007s-0.018-0.012-0.025-0.021l-0.679-0.842c0.001 0.013 0.001 0.026 0 0.038s0 0.024 0 0.034v0.797h-0.139v-1.118h0.082c0.010-0 0.019 0.002 0.028 0.005z"></path>
<path fill="#afb1b8" d="M20.831 22.064v0.444h-0.155v-0.444l-0.429-0.673h0.139c0.012-0.001 0.024 0.003 0.033 0.010 0.008 0.007 0.016 0.016 0.021 0.025l0.269 0.434c0.011 0.018 0.020 0.035 0.028 0.052s0.014 0.032 0.019 0.047l0.020-0.048c0.008-0.018 0.016-0.035 0.026-0.051l0.265-0.437c0.006-0.009 0.012-0.017 0.020-0.024 0.009-0.008 0.021-0.012 0.033-0.011h0.141l-0.43 0.676z"></path>
<path fill="#afb1b8" d="M14.517 19.515c0.068 0.008 0.136 0.015 0.205 0.021 1.048-0.447 1.934-1.177 2.548-2.101s0.929-2 0.905-3.093l-1.155-1.1c0.235 1.164 0.125 2.367-0.317 3.475s-1.199 2.077-2.186 2.798z"></path>
<path fill="#afb1b8" d="M14.104 19.464l0.031 0.006c1.055-0.719 1.859-1.723 2.309-2.882s0.524-2.42 0.213-3.62l-1.645-1.567c0.665 1.288 0.933 2.729 0.772 4.156s-0.744 2.782-1.681 3.906z"></path>
<path fill="#afb1b8" d="M19.682 15.634c-0.279 1.201-0.958 2.285-1.935 3.089-0.285 0.236-0.593 0.447-0.919 0.629 0.796-0.223 1.527-0.617 2.137-1.151s1.084-1.196 1.384-1.932l-0.667-0.635z"></path>
<path fill="#afb1b8" d="M19.42 15.457l-0.95-0.905c-0.018 1.032-0.326 2.040-0.891 2.92s-1.368 1.599-2.324 2.084h0.005c0.213-0 0.426-0.012 0.637-0.036 0.894-0.347 1.683-0.9 2.298-1.609s1.036-1.552 1.225-2.453z"></path>
<path fill="#afb1b8" d="M14.242 10.741l-1.133-1.081c-1.013 0.373-1.884 1.028-2.499 1.881s-0.946 1.862-0.949 2.896v0c0.004 1.143 0.408 2.252 1.148 3.152s1.774 1.539 2.938 1.816c1.039-1.206 1.647-2.696 1.737-4.255s-0.345-3.103-1.24-4.409z"></path>
<path fill="#afb1b8" d="M22.038 15.29c-0.004-1.356-0.571-2.656-1.578-3.615s-2.37-1.499-3.794-1.503c-0.658-0.001-1.31 0.115-1.923 0.341l6.936 6.609c0.238-0.584 0.359-1.205 0.359-1.832z"></path>
</svg>
