<!-- Generated by IcoMoon.io -->
<svg version="1.1" xmlns="http://www.w3.org/2000/svg" width="32" height="32" viewBox="0 0 32 32">
<title>company5</title>
<path fill="#afb1b8" d="M8.298 20.612c0.069 0.086 0.106 0.194 0.104 0.305 0.004 0.072-0.009 0.145-0.037 0.211s-0.071 0.126-0.125 0.174c-0.135 0.102-0.302 0.152-0.47 0.141h-0.827v-1.934h0.81c0.16-0.011 0.319 0.035 0.449 0.128 0.052 0.044 0.094 0.1 0.121 0.162s0.040 0.131 0.036 0.199c0.005 0.107-0.029 0.212-0.094 0.296-0.063 0.077-0.15 0.13-0.246 0.151 0.11 0.020 0.209 0.079 0.279 0.165zM7.328 20.32h0.346c0.079 0.006 0.157-0.017 0.22-0.064 0.026-0.024 0.046-0.053 0.059-0.086s0.018-0.068 0.015-0.103c0.002-0.035-0.003-0.070-0.016-0.103s-0.032-0.062-0.058-0.086c-0.065-0.049-0.146-0.072-0.227-0.065h-0.341v0.507zM7.928 21.062c0.028-0.024 0.050-0.055 0.064-0.089s0.020-0.071 0.018-0.108c0.002-0.037-0.004-0.075-0.019-0.109s-0.037-0.065-0.065-0.089c-0.068-0.050-0.151-0.075-0.235-0.070h-0.363v0.532h0.368c0.083 0.005 0.165-0.019 0.232-0.067z"></path>
<path fill="#afb1b8" d="M9.954 21.443l-0.451-0.756h-0.169v0.756h-0.388v-1.934h0.734c0.185-0.013 0.368 0.046 0.511 0.164 0.103 0.105 0.164 0.243 0.174 0.39s-0.033 0.292-0.12 0.41c-0.091 0.104-0.214 0.174-0.35 0.196l0.48 0.773h-0.421zM9.334 20.424h0.317c0.22 0 0.33-0.098 0.33-0.293 0.002-0.040-0.004-0.080-0.018-0.117s-0.035-0.072-0.063-0.1c-0.070-0.058-0.159-0.086-0.249-0.078h-0.321l0.004 0.588z"></path>
<path fill="#afb1b8" d="M12.073 21.054h-0.772l-0.136 0.389h-0.406l0.709-1.912h0.439l0.707 1.912h-0.406l-0.134-0.389zM11.969 20.761l-0.282-0.816-0.282 0.816h0.564z"></path>
<path fill="#afb1b8" d="M14.725 21.443h-0.385l-0.863-1.315v1.315h-0.384v-1.934h0.384l0.863 1.322v-1.322h0.385v1.934z"></path>
<path fill="#afb1b8" d="M16.921 20.981c-0.080 0.146-0.201 0.265-0.348 0.341-0.168 0.085-0.353 0.127-0.541 0.122h-0.685v-1.934h0.685c0.187-0.005 0.373 0.036 0.541 0.119 0.147 0.075 0.269 0.192 0.348 0.337 0.079 0.157 0.12 0.331 0.12 0.507s-0.041 0.35-0.12 0.507zM16.48 20.934c0.11-0.128 0.17-0.292 0.17-0.461s-0.060-0.333-0.17-0.461c-0.133-0.116-0.306-0.175-0.482-0.164h-0.267v1.252h0.267c0.176 0.011 0.349-0.048 0.482-0.164z"></path>
<path fill="#afb1b8" d="M12.314 8.755c0 0 4.966 1.883 4.861 4.607v4.608c0 0-4.963-1.884-4.859-4.608l-0.002-4.607z"></path>
<path fill="#afb1b8" d="M21.599 16.89c0.938-0.648 2.023-1.050 3.155-1.168v-1.442c-1.305 0.505-2.412 1.421-3.155 2.61z"></path>
<path fill="#afb1b8" d="M21.036 17.325c0.768-1.552 2.099-2.75 3.719-3.347v-4.156c0 0-7.073 2.682-6.923 6.561v6.56c0 0 0.315-0.12 0.811-0.345 0-0.21 0-0.421 0.023-0.634 0.146-1.801 0.999-3.47 2.371-4.64z"></path>
<path fill="#afb1b8" d="M20.363 19.762c0.037-0.455 0.12-0.905 0.247-1.343-0.854 1.010-1.371 2.264-1.479 3.585-0.010 0.125-0.016 0.249-0.019 0.378 0.402-0.194 0.869-0.435 1.36-0.72-0.125-0.625-0.162-1.264-0.11-1.9z"></path>
<path fill="#afb1b8" d="M20.644 19.786c-0.047 0.575-0.018 1.153 0.087 1.72 1.932-1.161 4.104-2.955 4.020-5.122v-0.189c-1.381 0.155-2.672 0.761-3.677 1.725-0.235 0.597-0.38 1.226-0.431 1.867z"></path>
</svg>
