<!-- Generated by IcoMoon.io -->
<svg version="1.1" xmlns="http://www.w3.org/2000/svg" width="32" height="32" viewBox="0 0 32 32">
<title>company6</title>
<path fill="#afb1b8" d="M16.224 15.503c-0.126-0.184-0.187-0.402-0.172-0.621v-0.9c0-0.276 0.057-0.486 0.171-0.629s0.31-0.215 0.588-0.214c0.261 0 0.447 0.061 0.556 0.183 0.12 0.156 0.178 0.346 0.164 0.539v0.212h-0.467v-0.214c0.002-0.070-0.003-0.14-0.014-0.21-0.007-0.047-0.030-0.091-0.067-0.125-0.048-0.036-0.108-0.053-0.169-0.049-0.064-0.005-0.128 0.014-0.178 0.051-0.041 0.037-0.068 0.085-0.077 0.137-0.013 0.073-0.020 0.148-0.018 0.223v1.093c-0.007 0.105 0.013 0.211 0.060 0.307 0.023 0.032 0.056 0.058 0.093 0.074s0.079 0.022 0.121 0.017c0.060 0.005 0.119-0.013 0.165-0.049 0.038-0.036 0.063-0.082 0.070-0.133 0.011-0.072 0.016-0.146 0.015-0.219v-0.222h0.467v0.202c0.013 0.2-0.044 0.399-0.162 0.566-0.107 0.134-0.29 0.201-0.559 0.201s-0.472-0.071-0.587-0.22z"></path>
<path fill="#afb1b8" d="M18.169 15.512c-0.118-0.14-0.177-0.344-0.177-0.615v-0.947c0-0.267 0.059-0.47 0.177-0.607s0.315-0.206 0.592-0.205c0.275 0 0.471 0.068 0.589 0.205s0.178 0.34 0.178 0.607v0.947c0 0.267-0.060 0.473-0.18 0.614s-0.315 0.212-0.587 0.212c-0.272 0-0.473-0.071-0.592-0.211zM18.979 15.285c0.042-0.088 0.062-0.184 0.056-0.28v-1.16c0.005-0.095-0.014-0.189-0.055-0.275-0.024-0.033-0.057-0.059-0.095-0.075s-0.081-0.022-0.123-0.016c-0.042-0.006-0.085 0-0.124 0.016s-0.072 0.042-0.096 0.075c-0.043 0.086-0.062 0.18-0.056 0.275v1.165c-0.006 0.096 0.013 0.193 0.056 0.28 0.027 0.030 0.061 0.053 0.099 0.069s0.079 0.025 0.12 0.025c0.041 0 0.082-0.008 0.12-0.025s0.071-0.040 0.099-0.069v-0.005z"></path>
<path fill="#afb1b8" d="M20.091 13.165h0.503l0.378 1.748 0.387-1.748h0.49l0.049 2.522h-0.362l-0.039-1.753-0.373 1.753h-0.29l-0.387-1.759-0.036 1.759h-0.366l0.045-2.522z"></path>
<path fill="#afb1b8" d="M22.462 13.165h0.784c0.451 0 0.677 0.239 0.677 0.716 0 0.457-0.238 0.686-0.713 0.685h-0.267v1.121h-0.484l0.003-2.522zM23.132 14.243c0.048 0.006 0.096 0.002 0.142-0.012s0.088-0.037 0.124-0.068c0.055-0.085 0.080-0.185 0.070-0.285 0.003-0.077-0.005-0.154-0.023-0.229-0.007-0.025-0.019-0.049-0.036-0.069s-0.037-0.038-0.061-0.051c-0.067-0.030-0.141-0.044-0.216-0.040h-0.188v0.754h0.188z"></path>
<path fill="#afb1b8" d="M24.621 13.165h0.52l0.533 2.522h-0.451l-0.105-0.582h-0.463l-0.108 0.582h-0.458l0.533-2.522zM25.065 14.814l-0.181-1.059-0.181 1.059h0.362z"></path>
<path fill="#afb1b8" d="M26.104 13.165h0.339l0.648 1.439v-1.439h0.401v2.522h-0.322l-0.652-1.502v1.502h-0.415l0.001-2.522z"></path>
<path fill="#afb1b8" d="M28.433 14.726l-0.539-1.557h0.454l0.329 1 0.309-1h0.444l-0.532 1.557v0.962h-0.464v-0.962z"></path>
<path fill="#afb1b8" d="M16.97 16.791v0.132h-0.395v1.025h-0.165v-1.025h-0.397v-0.132h0.957z"></path>
<path fill="#afb1b8" d="M18.208 17.948h-0.128c-0.013 0.001-0.026-0.003-0.036-0.011-0.010-0.007-0.017-0.016-0.021-0.027l-0.114-0.275h-0.548l-0.114 0.275c-0.003 0.012-0.009 0.022-0.017 0.031-0.010 0.008-0.023 0.012-0.036 0.011h-0.128l0.484-1.157h0.168l0.49 1.152zM17.407 17.518h0.457l-0.194-0.471c-0.014-0.036-0.026-0.072-0.036-0.109-0.007 0.022-0.013 0.043-0.018 0.061l-0.017 0.049-0.192 0.47z"></path>
<path fill="#afb1b8" d="M19.042 17.834c0.030 0.002 0.061 0.002 0.091 0 0.026-0.003 0.052-0.007 0.077-0.014 0.024-0.006 0.047-0.013 0.070-0.021 0.021-0.008 0.043-0.018 0.065-0.028v-0.26h-0.194c-0.005 0-0.010-0-0.014-0.002s-0.009-0.004-0.012-0.007c-0.003-0.003-0.006-0.006-0.007-0.009s-0.002-0.008-0.002-0.012v-0.089h0.375v0.443c-0.031 0.021-0.063 0.039-0.097 0.055s-0.070 0.029-0.107 0.039c-0.040 0.011-0.080 0.019-0.121 0.024-0.047 0.005-0.094 0.007-0.141 0.007-0.083 0.001-0.166-0.014-0.244-0.043-0.072-0.028-0.138-0.069-0.194-0.121-0.054-0.053-0.096-0.115-0.125-0.183-0.030-0.077-0.046-0.158-0.044-0.24-0.001-0.082 0.014-0.164 0.044-0.242 0.028-0.069 0.070-0.131 0.125-0.183s0.121-0.093 0.194-0.12c0.083-0.029 0.171-0.044 0.259-0.043 0.045-0 0.090 0.003 0.134 0.010 0.039 0.006 0.078 0.016 0.115 0.029 0.034 0.012 0.066 0.027 0.097 0.046s0.058 0.038 0.084 0.060l-0.046 0.071c-0.004 0.007-0.009 0.012-0.016 0.016s-0.014 0.006-0.022 0.006c-0.011-0-0.021-0.003-0.030-0.009-0.015-0.007-0.030-0.016-0.047-0.027-0.021-0.012-0.042-0.023-0.065-0.031-0.029-0.011-0.059-0.020-0.089-0.026-0.041-0.007-0.082-0.010-0.123-0.010-0.064-0.001-0.127 0.010-0.187 0.032-0.054 0.020-0.102 0.052-0.142 0.092-0.040 0.042-0.071 0.091-0.090 0.144-0.043 0.125-0.043 0.26 0 0.386 0.021 0.054 0.054 0.104 0.097 0.146 0.040 0.040 0.088 0.071 0.141 0.092 0.061 0.020 0.127 0.028 0.192 0.023z"></path>
<path fill="#afb1b8" d="M20.584 17.816h0.528v0.132h-0.69v-1.157h0.165l-0.004 1.025z"></path>
<path fill="#afb1b8" d="M21.662 17.947h-0.165v-1.157h0.165v1.157z"></path>
<path fill="#afb1b8" d="M22.277 16.796c0.010 0.005 0.018 0.012 0.025 0.021l0.707 0.872c-0.001-0.014-0.001-0.027 0-0.041s0-0.026 0-0.038v-0.824h0.144v1.161h-0.083c-0.012 0.001-0.025-0.001-0.036-0.006-0.010-0.006-0.019-0.013-0.026-0.022l-0.706-0.871c0 0.014 0 0.027 0 0.039s0 0.025 0 0.036v0.824h-0.138v-1.157h0.086c0.009 0 0.019 0.002 0.027 0.006z"></path>
<path fill="#afb1b8" d="M24.372 16.791v0.127h-0.586v0.382h0.475v0.123h-0.475v0.395h0.586v0.127h-0.757v-1.154h0.757z"></path>
<path fill="#afb1b8" d="M7.035 9.646l7.346 1.975v6.92l-7.346-1.974v-6.921zM6.564 9.057v7.847l8.288 2.228v-7.846l-8.288-2.229z"></path>
<path fill="#afb1b8" d="M11.006 22.774l-8.289-2.23v-7.846l8.289 2.229v7.847z"></path>
<path fill="#afb1b8" d="M6.701 9.558l7.251 1.95-3.083 2.92-7.252-1.951 3.084-2.919zM6.564 9.057l-3.847 3.642 8.289 2.229 3.846-3.642-8.288-2.229z"></path>
<path fill="#afb1b8" d="M11.472 22.333l3.38-3.2-3.38-0.91v4.11z"></path>
</svg>
