<!-- Generated by IcoMoon.io -->
<svg version="1.1" xmlns="http://www.w3.org/2000/svg" width="32" height="32" viewBox="0 0 32 32">
<title>company2</title>
<path fill="#afb1b8" d="M15.087 9.037h0.041c0.076 0 0.159 0.008 0.241 0.015 0.36 0.025 0.718 0.079 1.069 0.161v-0.864c-0.362-0.091-0.731-0.15-1.104-0.176-0.141-0.011-0.292-0.018-0.446-0.021h-0.129c-0.747 0.003-1.491 0.099-2.215 0.286-0.824 0.206-1.615 0.527-2.35 0.956v8.573c0.707-0.384 1.46-0.678 2.24-0.873 0.616-0.157 1.246-0.254 1.88-0.289h0.025c0.106-0.005 0.212-0.008 0.322-0.009v-0.878c-0.825 0.011-1.645 0.12-2.444 0.325-0.296 0.077-0.581 0.16-0.849 0.252l-0.305 0.104v-6.684l0.131-0.063c0.997-0.473 2.074-0.748 3.175-0.81 0.009-0.001 0.018-0.001 0.027 0 0.121-0.006 0.244-0.009 0.364-0.009h0.137c0.063 0.002 0.127 0.003 0.19 0.007z"></path>
<path fill="#afb1b8" d="M17.241 9.942c-0.201 0-0.399-0.007-0.591-0.021-0.229-0.017-0.464-0.045-0.687-0.082-0.136-0.023-0.27-0.051-0.399-0.081v8.474c0.55 0.136 1.114 0.203 1.68 0.198 0.747-0.003 1.491-0.099 2.215-0.285 0.824-0.206 1.616-0.528 2.351-0.956v-8.42c-0.707 0.384-1.459 0.678-2.239 0.874-0.761 0.195-1.543 0.296-2.329 0.299zM20.63 10.089l0.305-0.103v6.686l-0.131 0.063c-0.501 0.238-1.024 0.426-1.562 0.561-0.653 0.169-1.324 0.256-1.999 0.259-0.202 0-0.402-0.008-0.596-0.025l-0.209-0.018v-6.876l0.244 0.016c0.177 0.012 0.36 0.017 0.56 0.017 0.856-0.003 1.708-0.112 2.538-0.325 0.285-0.075 0.568-0.16 0.849-0.254z"></path>
<path fill="#afb1b8" d="M10.789 20.894c-0.044-0.046-0.097-0.081-0.155-0.105s-0.121-0.035-0.184-0.032c-0.067-0.001-0.134 0.012-0.196 0.037-0.057 0.023-0.109 0.057-0.153 0.101s-0.077 0.096-0.098 0.154c-0.024 0.060-0.036 0.125-0.035 0.19v1.145c-0.003 0.081 0.013 0.161 0.045 0.235 0.027 0.059 0.066 0.111 0.115 0.154 0.046 0.039 0.1 0.066 0.157 0.081 0.056 0.016 0.113 0.024 0.171 0.024 0.064 0.001 0.127-0.013 0.185-0.040 0.057-0.025 0.109-0.061 0.153-0.106 0.043-0.044 0.076-0.097 0.1-0.154s0.037-0.12 0.037-0.183v-0.128h-0.299v0.102c0.001 0.035-0.005 0.070-0.018 0.102-0.010 0.024-0.025 0.046-0.044 0.064-0.019 0.015-0.040 0.026-0.063 0.033-0.020 0.007-0.041 0.010-0.063 0.011-0.027 0.003-0.054-0.001-0.079-0.012s-0.046-0.028-0.062-0.050c-0.028-0.046-0.042-0.099-0.040-0.154v-1.068c-0.002-0.059 0.011-0.118 0.037-0.171 0.016-0.024 0.038-0.043 0.063-0.056s0.055-0.017 0.083-0.013c0.026-0.001 0.051 0.004 0.075 0.016s0.043 0.028 0.059 0.049c0.034 0.044 0.051 0.098 0.050 0.154v0.099h0.296v-0.117c0.001-0.069-0.012-0.137-0.037-0.2-0.022-0.060-0.056-0.115-0.1-0.161z"></path>
<path fill="#afb1b8" d="M12.567 20.881c-0.095-0.081-0.216-0.125-0.341-0.126-0.061 0-0.121 0.011-0.179 0.032s-0.112 0.053-0.158 0.094c-0.050 0.045-0.089 0.099-0.116 0.16-0.030 0.070-0.045 0.146-0.044 0.222v1.099c-0.002 0.077 0.013 0.154 0.044 0.225 0.027 0.059 0.067 0.111 0.116 0.154 0.046 0.043 0.1 0.075 0.158 0.097 0.057 0.021 0.118 0.032 0.179 0.032s0.121-0.011 0.179-0.032c0.060-0.022 0.114-0.055 0.162-0.097s0.086-0.095 0.113-0.154c0.031-0.071 0.046-0.148 0.044-0.225v-1.099c0.001-0.076-0.013-0.152-0.044-0.222-0.027-0.061-0.065-0.115-0.113-0.16zM12.427 22.362c0.003 0.029-0.002 0.059-0.012 0.086s-0.027 0.052-0.048 0.073c-0.040 0.033-0.089 0.051-0.141 0.051s-0.101-0.018-0.141-0.051c-0.021-0.020-0.037-0.045-0.048-0.073s-0.014-0.057-0.012-0.086v-1.099c-0.002-0.029 0.002-0.059 0.012-0.086s0.027-0.052 0.048-0.073c0.040-0.033 0.089-0.051 0.141-0.051s0.101 0.018 0.141 0.051c0.021 0.020 0.037 0.045 0.048 0.073s0.014 0.057 0.012 0.086v1.099z"></path>
<path fill="#afb1b8" d="M14.903 22.853v-2.080h-0.288l-0.378 1.101h-0.005l-0.381-1.101h-0.285v2.080h0.297v-1.265h0.005l0.291 0.894h0.148l0.293-0.894h0.005v1.265h0.297z"></path>
<path fill="#afb1b8" d="M16.591 20.919c-0.046-0.051-0.104-0.090-0.168-0.114-0.070-0.023-0.142-0.034-0.215-0.032h-0.441v2.080h0.296v-0.812h0.153c0.092 0.004 0.184-0.015 0.267-0.057 0.067-0.037 0.124-0.092 0.163-0.159 0.034-0.055 0.057-0.117 0.068-0.181 0.012-0.078 0.017-0.157 0.016-0.236 0.003-0.1-0.007-0.2-0.029-0.297-0.020-0.072-0.057-0.138-0.109-0.191zM16.438 21.553c-0.001 0.038-0.011 0.075-0.027 0.108-0.017 0.032-0.044 0.058-0.076 0.073-0.044 0.020-0.092 0.029-0.14 0.026h-0.135v-0.707h0.153c0.046-0.002 0.092 0.007 0.134 0.026 0.031 0.018 0.055 0.044 0.070 0.077 0.016 0.037 0.025 0.076 0.026 0.116 0 0.044 0 0.090 0 0.138s0.003 0.098 0 0.143h-0.003z"></path>
<path fill="#afb1b8" d="M17.995 20.773h-0.243l-0.458 2.080h0.296l0.087-0.447h0.404l0.087 0.447h0.296l-0.47-2.080zM17.721 22.123l0.146-0.754h0.005l0.145 0.754h-0.296z"></path>
<path fill="#afb1b8" d="M19.909 22.026h-0.005l-0.448-1.253h-0.285v2.080h0.296v-1.251h0.006l0.453 1.251h0.279v-2.080h-0.296v1.253z"></path>
<path fill="#afb1b8" d="M21.72 20.773l-0.238 0.827h-0.006l-0.238-0.827h-0.314l0.407 1.201v0.879h0.296v-0.879l0.407-1.201h-0.314z"></path>
<path fill="#afb1b8" d="M9.962 23.44h0.143v0.401h0.097v-0.401h0.142v-0.082h-0.382v0.082z"></path>
<path fill="#afb1b8" d="M11.163 23.358l-0.187 0.483h0.103l0.040-0.11h0.192l0.041 0.11h0.105l-0.192-0.483h-0.103zM11.148 23.649l0.066-0.179 0.066 0.179h-0.131z"></path>
<path fill="#afb1b8" d="M12.35 23.663h0.112v0.062c-0.033 0.026-0.073 0.040-0.115 0.041-0.019 0.001-0.039-0.003-0.057-0.011s-0.033-0.020-0.046-0.036c-0.026-0.037-0.038-0.081-0.036-0.126 0-0.107 0.047-0.161 0.139-0.161 0.024-0.002 0.049 0.004 0.069 0.018s0.034 0.035 0.040 0.059l0.095-0.018c-0.021-0.094-0.089-0.142-0.205-0.142-0.062-0.002-0.122 0.021-0.169 0.062-0.024 0.024-0.043 0.053-0.055 0.085s-0.017 0.066-0.014 0.101c-0.003 0.066 0.019 0.131 0.062 0.181 0.024 0.024 0.052 0.043 0.084 0.056s0.066 0.017 0.099 0.015c0.076 0.002 0.149-0.025 0.205-0.077v-0.19h-0.209v0.081z"></path>
<path fill="#afb1b8" d="M13.561 23.358h-0.098v0.483h0.338v-0.082h-0.241v-0.401z"></path>
<path fill="#afb1b8" d="M14.586 23.358h-0.098v0.483h0.098v-0.483z"></path>
<path fill="#afb1b8" d="M15.588 23.68l-0.198-0.322h-0.095v0.483h0.091v-0.316l0.194 0.316h0.097v-0.483h-0.089v0.322z"></path>
<path fill="#afb1b8" d="M16.494 23.628h0.241v-0.082h-0.241v-0.106h0.259v-0.082h-0.357v0.483h0.367v-0.082h-0.269v-0.131z"></path>
<path fill="#afb1b8" d="M18.69 23.548h-0.19v-0.19h-0.097v0.483h0.097v-0.211h0.19v0.211h0.097v-0.483h-0.097v0.19z"></path>
<path fill="#afb1b8" d="M19.602 23.628h0.241v-0.082h-0.241v-0.106h0.26v-0.082h-0.357v0.483h0.366v-0.082h-0.269v-0.131z"></path>
<path fill="#afb1b8" d="M20.837 23.628c0.084-0.013 0.127-0.058 0.127-0.134 0.002-0.021-0.001-0.041-0.009-0.060s-0.022-0.035-0.038-0.047c-0.044-0.022-0.093-0.032-0.141-0.028h-0.205v0.483h0.097v-0.202h0.019c0.021-0.001 0.041 0.002 0.060 0.011 0.014 0.009 0.026 0.021 0.034 0.035l0.105 0.154h0.116l-0.059-0.094c-0.026-0.047-0.063-0.086-0.107-0.116zM20.74 23.561h-0.072v-0.121h0.076c0.033-0.003 0.067 0.001 0.099 0.012 0.007 0.006 0.013 0.014 0.016 0.023s0.005 0.018 0.005 0.028c-0 0.009-0.003 0.019-0.007 0.027s-0.011 0.016-0.018 0.021c-0.032 0.010-0.065 0.014-0.099 0.012z"></path>
<path fill="#afb1b8" d="M21.769 23.628h0.241v-0.082h-0.241v-0.106h0.26v-0.082h-0.357v0.483h0.367v-0.082h-0.269v-0.131z"></path>
</svg>
