<!-- Generated by IcoMoon.io -->
<svg version="1.1" xmlns="http://www.w3.org/2000/svg" width="32" height="32" viewBox="0 0 32 32">
<title>company4</title>
<path fill="#2196f3" d="M7.669 13.534h-0.001c-0.683 0-1.237 0.54-1.237 1.205v0.001c0 0.666 0.554 1.205 1.237 1.205h0.001c0.683 0 1.237-0.54 1.237-1.205v-0.001c0-0.666-0.554-1.205-1.237-1.205z"></path>
<path fill="#2196f3" d="M16.796 13.149c-0.002-0.924-0.38-1.81-1.050-2.464s-1.58-1.022-2.528-1.024v0c-0.949 0.002-1.858 0.37-2.529 1.023s-1.049 1.54-1.051 2.465v5.098c0 0 7.158-0.777 7.159-5.097v-0.001z"></path>
<path fill="#2196f3" d="M3.925 19.919c0.002 0.643 0.265 1.26 0.731 1.714s1.099 0.711 1.759 0.713c0.66-0.002 1.292-0.258 1.759-0.713s0.73-1.071 0.732-1.714v-3.547c0 0-4.981 0.541-4.981 3.546zM6.415 20.555c-0.129 0-0.255-0.037-0.362-0.107s-0.191-0.169-0.24-0.285c-0.049-0.116-0.062-0.244-0.037-0.367s0.087-0.237 0.178-0.325c0.091-0.089 0.207-0.149 0.334-0.174s0.258-0.012 0.377 0.036c0.119 0.048 0.221 0.13 0.293 0.234s0.11 0.227 0.11 0.353c0 0.084-0.016 0.167-0.049 0.244s-0.081 0.148-0.141 0.207c-0.061 0.059-0.133 0.106-0.212 0.138s-0.164 0.049-0.25 0.049v-0.002z"></path>
<path fill="#2196f3" d="M11.499 20.16h-0.509v0.526h-0.265v-1.288h0.838v0.215h-0.573v0.333h0.509v0.214zM12.774 20.072c0 0.127-0.022 0.238-0.067 0.333s-0.109 0.169-0.193 0.221c-0.083 0.052-0.179 0.078-0.287 0.078-0.107 0-0.202-0.026-0.286-0.077s-0.149-0.124-0.195-0.219c-0.046-0.096-0.069-0.205-0.070-0.329v-0.064c0-0.127 0.023-0.238 0.068-0.334s0.111-0.171 0.194-0.222c0.084-0.052 0.179-0.078 0.287-0.078s0.203 0.026 0.286 0.078c0.084 0.051 0.148 0.125 0.194 0.222s0.069 0.207 0.069 0.333v0.057zM12.505 20.014c0-0.135-0.024-0.238-0.072-0.308s-0.117-0.105-0.207-0.105c-0.089 0-0.158 0.035-0.206 0.104s-0.073 0.17-0.073 0.304v0.063c0 0.131 0.024 0.233 0.072 0.306s0.118 0.109 0.209 0.109c0.089 0 0.157-0.035 0.205-0.104s0.072-0.172 0.072-0.306v-0.063zM13.635 20.349c0-0.050-0.018-0.088-0.053-0.115s-0.099-0.055-0.191-0.085c-0.092-0.030-0.165-0.060-0.218-0.088-0.146-0.079-0.219-0.185-0.219-0.319 0-0.070 0.019-0.131 0.058-0.186s0.096-0.098 0.169-0.128c0.074-0.031 0.156-0.046 0.248-0.046s0.174 0.017 0.246 0.050c0.072 0.033 0.128 0.080 0.167 0.141s0.060 0.13 0.060 0.207h-0.265c0-0.059-0.019-0.105-0.056-0.137s-0.089-0.050-0.157-0.050c-0.065 0-0.115 0.014-0.151 0.042s-0.054 0.063-0.054 0.108c0 0.042 0.021 0.077 0.063 0.105s0.105 0.055 0.187 0.080c0.151 0.045 0.261 0.102 0.33 0.169s0.104 0.151 0.104 0.251c0 0.111-0.042 0.199-0.127 0.263s-0.198 0.095-0.341 0.095c-0.099 0-0.189-0.018-0.271-0.054s-0.144-0.086-0.187-0.149c-0.042-0.063-0.064-0.136-0.064-0.219h0.266c0 0.142 0.085 0.213 0.255 0.213 0.063 0 0.112-0.013 0.148-0.038s0.053-0.062 0.053-0.108zM15.051 19.614h-0.394v1.073h-0.265v-1.073h-0.389v-0.215h1.049v0.215zM15.977 20.129h-0.509v0.345h0.598v0.213h-0.863v-1.288h0.861v0.215h-0.596v0.307h0.509v0.208zM16.698 20.215h-0.211v0.471h-0.265v-1.288h0.478c0.152 0 0.269 0.034 0.352 0.102s0.124 0.164 0.124 0.287c0 0.088-0.019 0.161-0.057 0.22s-0.095 0.105-0.172 0.14l0.279 0.526v0.012h-0.285l-0.241-0.471zM16.487 20h0.214c0.067 0 0.118-0.017 0.155-0.050s0.055-0.081 0.055-0.141c0-0.061-0.017-0.108-0.052-0.143s-0.087-0.052-0.158-0.052h-0.213v0.387zM18.095 20.233v0.454h-0.265v-1.288h0.502c0.097 0 0.182 0.018 0.255 0.053s0.13 0.086 0.17 0.151c0.040 0.065 0.059 0.139 0.059 0.222 0 0.126-0.043 0.226-0.13 0.299s-0.206 0.109-0.358 0.109h-0.233zM18.095 20.018h0.237c0.070 0 0.124-0.017 0.16-0.050s0.056-0.080 0.056-0.142c0-0.063-0.019-0.114-0.056-0.153s-0.088-0.059-0.154-0.060h-0.243v0.404zM19.773 20.129h-0.509v0.345h0.598v0.213h-0.863v-1.288h0.861v0.215h-0.596v0.307h0.509v0.208zM21.005 19.614h-0.394v1.073h-0.265v-1.073h-0.389v-0.215h1.049v0.215zM21.931 20.129h-0.509v0.345h0.598v0.213h-0.863v-1.288h0.861v0.215h-0.596v0.307h0.509v0.208zM22.652 20.215h-0.211v0.471h-0.265v-1.288h0.479c0.152 0 0.269 0.034 0.352 0.102s0.124 0.164 0.124 0.287c0 0.088-0.019 0.161-0.058 0.22s-0.095 0.105-0.172 0.14l0.279 0.526v0.012h-0.285l-0.241-0.471zM22.441 20h0.214c0.067 0 0.118-0.017 0.155-0.050s0.055-0.081 0.055-0.141c0-0.061-0.017-0.108-0.052-0.143s-0.087-0.052-0.158-0.052h-0.213v0.387zM24 20.349c0-0.050-0.018-0.088-0.053-0.115s-0.099-0.055-0.191-0.085c-0.092-0.030-0.165-0.060-0.218-0.088-0.146-0.079-0.219-0.185-0.219-0.319 0-0.070 0.019-0.131 0.058-0.186s0.096-0.098 0.169-0.128c0.074-0.031 0.156-0.046 0.248-0.046s0.174 0.017 0.246 0.050c0.072 0.033 0.128 0.080 0.167 0.141s0.060 0.13 0.060 0.207h-0.265c0-0.059-0.019-0.105-0.056-0.137s-0.089-0.050-0.157-0.050c-0.065 0-0.115 0.014-0.151 0.042s-0.054 0.063-0.054 0.108c0 0.042 0.021 0.077 0.063 0.105s0.105 0.055 0.187 0.080c0.151 0.045 0.261 0.102 0.33 0.169s0.103 0.151 0.103 0.251c0 0.111-0.042 0.199-0.126 0.263s-0.198 0.095-0.341 0.095c-0.099 0-0.189-0.018-0.271-0.054s-0.144-0.086-0.187-0.149c-0.042-0.063-0.064-0.136-0.064-0.219h0.266c0 0.142 0.085 0.213 0.255 0.213 0.063 0 0.112-0.013 0.148-0.038s0.053-0.062 0.053-0.108z"></path>
</svg>
